<svg xmlns="http://www.w3.org/2000/svg"  viewBox="0 0 100 100" width="200px" height="200px"><path fill="#f05b6c" d="M31,18c-7.168,0-13,5.832-13,13v39c0,7.168,5.832,13,13,13h39c7.168,0,13-5.832,13-13V31 c0-7.169-5.832-13-13-13H31z"/><path fill="#f8e55c" d="M68.042,48.505c-0.083-1.897-0.187-4.258-0.953-6.495c-0.176-0.514-0.588-1.718-1.944-1.872h0 c-1.142-0.132-2.116,0.358-2.674,1.339c-0.455,0.799-0.776,1.66-1.088,2.494c-0.128,0.344-0.207,0.693-0.284,1.031 c-0.05,0.223-0.101,0.445-0.166,0.664c-0.123,0.411-0.277,0.584-0.371,0.607c-0.089,0.021-0.313-0.06-0.618-0.374 c-0.277-0.286-0.505-0.637-0.751-1.016c-0.439-0.676-0.871-1.357-1.302-2.039c-0.901-1.423-1.832-2.896-2.83-4.293 c-0.994-1.394-2.162-2.64-3.37-3.899c-0.593-0.619-1.435-0.935-1.885-1.066c-0.773-0.229-1.484-0.087-1.952,0.387 c-0.479,0.483-0.613,1.217-0.369,2.013c0.148,0.484,0.383,0.992,0.737,1.598c0.859,1.47,1.725,2.934,2.591,4.397 c0.682,1.153,1.364,2.306,2.042,3.461l0.057,0.095c0.068,0.113,0.195,0.323,0.205,0.368l-0.117,0.073 c-0.088-0.023-0.27-0.286-0.366-0.423c-0.398-0.57-0.793-1.143-1.188-1.715l-1.862-2.694c-1.53-2.212-3.061-4.424-4.584-6.641 c-0.678-0.985-1.6-1.447-2.658-1.312c-0.969,0.117-1.74,0.648-2.115,1.458c-0.387,0.835-0.278,1.849,0.292,2.712 c1.586,2.403,3.179,4.802,4.772,7.201l2.335,3.518c0.041,0.061,0.087,0.121,0.134,0.182c0.042,0.054,0.105,0.136,0.112,0.14 c0.007,0.062,0,0.135-0.013,0.216c-0.077-0.015-0.141-0.03-0.184-0.05c-0.027-0.023-0.082-0.11-0.118-0.169 c-0.041-0.065-0.083-0.13-0.126-0.189l-2.133-2.884c-1.311-1.773-2.623-3.547-3.938-5.317c-0.529-0.712-1.24-1.165-2.002-1.275 c-0.683-0.099-1.377,0.085-1.957,0.52c-1.231,0.923-1.367,2.438-0.346,3.861l7.163,9.983l0.132,0.172 c0.064,0.081,0.171,0.217,0.183,0.269c0.013,0.094,0.004,0.204-0.012,0.283c-0.075-0.011-0.177-0.033-0.279-0.071 c-0.027-0.022-0.083-0.108-0.12-0.165c-0.04-0.062-0.081-0.122-0.123-0.178l-1.416-1.873c-1.232-1.632-2.465-3.265-3.719-4.881 c-0.303-0.39-0.803-0.934-1.465-1.314c-0.67-0.386-1.416-0.401-1.997-0.047c-0.559,0.344-0.87,0.987-0.831,1.721 c0.04,0.754,0.185,1.855,0.651,2.817c2.197,4.542,4.453,8.04,7.1,11.007c2.5,2.803,5.111,4.571,7.982,5.408 c1.057,0.308,2.148,0.454,3.244,0.454c5.282,0,10.665-3.401,12.753-8.496c1.172-2.861,1.727-5.889,1.745-9.551L68.042,48.505z"/><path fill="#1f212b" d="M42.694,33.672c0.8,0,1.417,0.422,1.895,1.117c2.021,2.94,4.054,5.872,6.083,8.808 c0.517,0.749,1.032,1.499,1.553,2.245c0.205,0.294,0.44,0.636,0.771,0.636c0.098,0,0.204-0.03,0.32-0.099 c0.548-0.329,0.196-0.809-0.028-1.191c-1.54-2.621-3.098-5.232-4.633-7.856c-0.276-0.472-0.531-0.973-0.691-1.492 c-0.326-1.065,0.21-1.86,1.143-1.86c0.174,0,0.361,0.028,0.559,0.086c0.6,0.177,1.241,0.491,1.665,0.933 c1.172,1.222,2.344,2.47,3.324,3.844c1.458,2.044,2.749,4.208,4.12,6.315c0.247,0.38,0.498,0.768,0.811,1.091 c0.344,0.355,0.664,0.53,0.944,0.53c0.383,0,0.692-0.327,0.883-0.968c0.164-0.549,0.24-1.129,0.439-1.663 c0.307-0.824,0.62-1.66,1.053-2.421c0.408-0.716,1.062-1.108,1.878-1.108c0.1,0,0.202,0.006,0.306,0.018 c0.911,0.103,1.277,0.806,1.527,1.537c0.762,2.225,0.846,4.551,0.933,6.503c-0.018,3.465-0.53,6.464-1.708,9.34 c-2.002,4.886-7.213,8.183-12.302,8.183c-1.045,0-2.085-0.139-3.092-0.432c-3.14-0.915-5.618-2.872-7.749-5.261 c-2.905-3.257-5.13-6.979-7.023-10.891c-0.383-0.792-0.554-1.739-0.601-2.626c-0.046-0.883,0.529-1.449,1.254-1.449 c0.263,0,0.545,0.074,0.825,0.235c0.503,0.289,0.96,0.726,1.319,1.188c1.732,2.233,3.424,4.497,5.131,6.749 c0.13,0.171,0.239,0.412,0.414,0.483c0.17,0.069,0.402,0.136,0.588,0.136c0.093,0,0.174-0.017,0.23-0.058 c0.175-0.126,0.23-0.535,0.194-0.8c-0.032-0.236-0.251-0.452-0.404-0.665c-2.386-3.328-4.777-6.653-7.163-9.982 c-0.857-1.196-0.761-2.42,0.24-3.17c0.4-0.3,0.845-0.447,1.29-0.447c0.714,0,1.43,0.377,1.967,1.1 c2.028,2.73,4.046,5.467,6.07,8.201c0.128,0.173,0.229,0.409,0.403,0.495c0.246,0.121,0.547,0.13,0.824,0.186 c0.044-0.28,0.142-0.566,0.114-0.839c-0.02-0.192-0.209-0.368-0.328-0.547c-2.369-3.572-4.745-7.139-7.105-10.717 c-0.98-1.485-0.247-3.191,1.465-3.398C42.503,33.678,42.6,33.672,42.694,33.672 M42.695,31.672L42.695,31.672 C42.694,31.672,42.694,31.672,42.695,31.672c-0.172,0-0.349,0.01-0.531,0.032c-1.474,0.178-2.707,1.044-3.296,2.316 c-0.461,0.995-0.485,2.134-0.094,3.193c-0.812,0.044-1.592,0.332-2.27,0.84c-1.774,1.33-2.12,3.57-0.911,5.565 c-0.616,0.139-1.173,0.452-1.614,0.917c-0.633,0.667-0.954,1.575-0.902,2.557c0.069,1.298,0.337,2.439,0.798,3.392 c2.26,4.671,4.589,8.278,7.331,11.352c2.693,3.019,5.533,4.932,8.682,5.85c1.167,0.34,2.395,0.512,3.651,0.512 c6.059,0,11.879-3.876,14.153-9.425c1.248-3.046,1.838-6.251,1.858-10.088l0-0.049l-0.002-0.049l-0.007-0.153 c-0.087-1.991-0.196-4.47-1.032-6.91c-0.594-1.736-1.669-2.704-3.194-2.877c-0.181-0.021-0.359-0.03-0.532-0.03 c-1.531,0-2.848,0.772-3.615,2.117c-0.501,0.88-0.854,1.811-1.163,2.639c-0.286-0.447-0.568-0.893-0.85-1.338 c-0.91-1.438-1.852-2.926-2.872-4.356c-1.052-1.474-2.26-2.765-3.509-4.066c-0.834-0.87-1.951-1.292-2.542-1.466 c-0.377-0.111-0.756-0.168-1.125-0.168c-1.057,0-2.007,0.464-2.606,1.274c-0.097,0.131-0.183,0.268-0.257,0.411 c-0.002-0.003-0.004-0.006-0.006-0.009C45.358,32.377,44.1,31.672,42.695,31.672L42.695,31.672L42.695,31.672z"/><path fill="#1f212b" d="M62.5,36c-0.203,0-0.394-0.124-0.469-0.326c-1.389-3.742-4.875-5.978-6.716-6.709 c-0.257-0.103-0.382-0.393-0.28-0.649c0.102-0.258,0.394-0.379,0.649-0.28c0.55,0.219,5.423,2.278,7.284,7.291 c0.096,0.259-0.036,0.547-0.295,0.643C62.617,35.99,62.558,36,62.5,36z"/><path fill="#1f212b" d="M43.5,71c-0.066,0-0.133-0.013-0.197-0.04c-7.115-3.05-10.146-10.949-10.271-11.284 c-0.097-0.259,0.034-0.547,0.292-0.644c0.258-0.096,0.547,0.034,0.644,0.292c0.029,0.078,3.014,7.838,9.729,10.716 c0.254,0.109,0.372,0.403,0.263,0.657C43.878,70.887,43.694,71,43.5,71z"/><path fill="#1f212b" d="M49.5,58c-0.072,0-0.145-0.016-0.214-0.049c-0.25-0.118-0.355-0.417-0.237-0.666 c0.111-0.233,2.769-5.736,7.208-8.222c0.241-0.135,0.545-0.049,0.681,0.192c0.135,0.241,0.049,0.546-0.192,0.681 c-4.157,2.327-6.767,7.725-6.793,7.778C49.866,57.895,49.687,58,49.5,58z"/><path fill="#1f212b" d="M61.5,59c-0.128,0-0.256-0.049-0.354-0.146c-3.153-3.153-2.18-8.236-2.137-8.451 c0.054-0.271,0.314-0.45,0.588-0.393c0.271,0.054,0.446,0.317,0.393,0.588c-0.009,0.048-0.907,4.778,1.863,7.549 c0.195,0.195,0.195,0.512,0,0.707C61.756,58.951,61.628,59,61.5,59z"/><path fill="#1f212b" d="M31.021,18.003c-7.168,0-13,5.832-13,13v39c0,7.168,5.832,13,13,13h39c7.168,0,13-5.832,13-13v-39 c0-7.169-5.832-13-13-13H31.021z M31.021,20.003h39c6.065,0,11,4.935,11,11v39c0,6.065-4.935,11-11,11h-39 c-6.065,0-11-4.935-11-11v-39C20.021,24.938,24.956,20.003,31.021,20.003z M33.857,23.001c-5.976,0-10.836,4.862-10.836,10.838 v33.326c0,5.976,4.86,10.836,10.836,10.836h33.326c5.976,0,10.838-4.86,10.838-10.836V48.503c0-0.277-0.224-0.5-0.5-0.5 s-0.5,0.224-0.5,0.5v18.662c0,5.424-4.414,9.838-9.838,9.838H33.857c-5.424,0-9.836-4.414-9.836-9.838V33.839 c0-5.424,4.412-9.838,9.836-9.838h33.664c0.276,0,0.5-0.224,0.5-0.5c0-0.276-0.224-0.5-0.5-0.5H33.857z M77.521,38.003 c-0.276,0-0.5,0.223-0.5,0.5v2c0,0.276,0.224,0.5,0.5,0.5s0.5-0.224,0.5-0.5v-2C78.021,38.227,77.797,38.003,77.521,38.003z M77.521,42.003c-0.276,0-0.5,0.224-0.5,0.5v4c0,0.276,0.224,0.5,0.5,0.5s0.5-0.224,0.5-0.5v-4 C78.021,42.226,77.797,42.003,77.521,42.003z"/></svg>